<svg xmlns="http://www.w3.org/2000/svg" xmlns:xlink="http://www.w3.org/1999/xlink" width="32" height="32"><defs><linearGradient id="a" x1="256" x2="256" y1="512" gradientUnits="userSpaceOnUse"><stop offset="0" stop-color="#fd5900"/><stop offset="1" stop-color="#ffde00"/></linearGradient><linearGradient id="b" x1="2.324" x2="21.868" y1="29.717" y2="13.668" gradientUnits="userSpaceOnUse" xlink:href="#a"/></defs><path fill="url(#b)" d="M16 .168c-3.666 0-6.658 2.992-6.658 6.658 0 3.665 2.992 6.657 6.658 6.657s6.658-2.992 6.658-6.657C22.656 3.159 19.665.168 16 .168zm0 2.115a4.525 4.525 0 0 1 4.542 4.543A4.525 4.525 0 0 1 16 11.368a4.525 4.525 0 0 1-4.543-4.542A4.525 4.525 0 0 1 16 2.283zM0 30.778a1.058 1.058 0 0 0 1.062 1.054h29.877a1.058 1.058 0 0 0 1.062-1.053c0-8.67-6.958-15.672-16.001-15.915-9.043.242-16 7.244-16 15.914zm16-13.885c7.303 0 13.106 5.668 13.674 12.824H2.324C2.893 22.562 8.694 16.893 16 16.893z"/></svg>